<svg xmlns="http://www.w3.org/2000/svg" id="mainLogo" viewBox="0.00 0.00 300.00 300.00 " width="1000" height="1000">
  <defs />
  <rect data-logo-bg="" fill="rgba(115,185,130,0)" width="300" height="300" />
  <g data-refid="icon" fill="#73b982" data-box="91.50 86.07 117.00 79.01 " transform="matrix(1.6709623430962344 0 0 1.6709623430962344 66.62485355648536 41.93750231802515)">
    <svg xmlns="http://www.w3.org/2000/svg" xmlns:xlink="http://www.w3.org/1999/xlink" version="1.1" x="0px" y="0px" viewBox="0 0 100 100" xml:space="preserve" width="100" height="100" id="FLDSRC_ICON">
      <path d="M27.6,51.6c-6,0-10.9,4.9-10.9,11c0,6.1,4.9,11,10.9,11s10.9-4.9,10.9-11C38.5,56.5,33.6,51.6,27.6,51.6z M27.6,68.4  c-3.1,0-5.7-2.6-5.7-5.8c0-3.2,2.5-5.8,5.7-5.8s5.7,2.6,5.7,5.8C33.2,65.8,30.7,68.4,27.6,68.4z" />
      <path d="M72.3,57.5c-4.4,0-8,3.6-8,8.1c0,4.5,3.6,8.1,8,8.1s8-3.6,8-8.1C80.3,61.1,76.8,57.5,72.3,57.5z M72.3,70  c-2.4,0-4.3-2-4.3-4.4s1.9-4.4,4.3-4.4c2.4,0,4.3,2,4.3,4.4S74.7,70,72.3,70z" />
      <path d="M80.4,52.5c0,0,1.1-2.7,1.5-5.4c-11.4-0.8-2.3-4.4-0.8-5c-2.2-2.4-7.1-4-7.1-4s-10-4.1-16.5-4.6c0,0-1.5-0.2-4.8,2.4l-1.9-2  l4.1-4.1l-1.2-1.2l-10,10l1.2,1.2l4.2-4.2l1.6,1.9h0c0,0-3.9,3.5-0.7,6.6c3.2,3.1,2.2,6.2,2.2,6.2h0H41.5L38,43.4l1.1-1.1  c0,0,0.3-0.3-0.2-0.8c-0.5-0.5-1.2-2.1-3-2.1h-8.7c0,0-1.1-0.9,0-2.2c1.1-1.3-0.7-8.4-2.8-10.3c-2.1-1.9-2.7,2.4-2.7,2.4v11.6  c0,0,0.2,1.9,1.8,2.4c0,0-3.2,1.3-4,5c0,0-2.9,1.6-4.4,3.6c-0.3,0.4-0.3,1.1,0.1,1.4l1.2,1.2c0.5,0.4,1.2,0.4,1.6-0.1  c2.3-2.6,5.6-4.3,9.4-4.3c6.9,0,12.5,5.7,12.5,12.7c0,2.2-0.6,4.3-1.5,6.1l2.5,1.5h17.6l4.1-3.5c0-0.3-0.1-0.7-0.1-1  c0-5.5,4.4-9.9,9.8-9.9c3,0,5.8,1.4,7.6,3.6h3.4c0,0,2.8-0.2,1-3.9C84.4,55.5,82.5,53.5,80.4,52.5z" />
    </svg>
  </g>
  <path data-refid="title" fill="#73b982" d="M 5.12-27.28L 2.6-27.28L 2.6-30L 8.76-30L 17.24-12.52L 25.64-30L 31.8-30L 31.8-27.28L 29.28-27.28L 29.28-2.72L 31.8-2.72L 31.8 0L 23.4 0L 23.4-2.72L 26-2.72L 26-23.32L 18.44-7.76L 15.92-7.76L 8.4-23.44L 8.4-2.72L 11-2.72L 11 0L 2.6 0L 2.6-2.72L 5.12-2.72L 5.12-27.28ZM 42.199999999999996-20L 42.199999999999996-2.72L 44.8-2.72L 44.8 0L 36.4 0L 36.4-2.72L 38.92-2.72L 38.92-17.28L 36.4-17.28L 36.4-20L 42.199999999999996-20ZM 40.56-27.36Q 41.4-27.36  41.98-26.74Q 42.56-26.12  42.56-25.26Q 42.56-24.4  41.98-23.82Q 41.4-23.24  40.54-23.24Q 39.68-23.24  39.1-23.82Q 38.519999999999996-24.4  38.519999999999996-25.26Q 38.519999999999996-26.12  39.12-26.74Q 39.72-27.36  40.56-27.36ZM 65.72-17.28L 63.2-17.28L 63.2 5.32Q 63.2 7  62.38000000000001 7.88Q 61.56 8.76  59.52 8.76L 59.52 8.76L 49.84 8.76L 49.84 3.32L 52.56 3.32L 52.56 6L 59.92 6L 59.92-4.44L 53.080000000000005-0.12Q 52.2 0.4  51.14000000000001 0.4Q 50.080000000000005 0.4  49.24000000000001-0.42Q 48.400000000000006-1.24  48.400000000000006-2.44L 48.400000000000006-2.44L 48.400000000000006-16.48Q 48.400000000000006-18.44  48.92000000000001-19.04L 48.92000000000001-19.04Q 49.800000000000004-20  51.800000000000004-20L 51.800000000000004-20L 65.72-20L 65.72-17.28ZM 59.92-7.68L 59.92-17.28L 51.52-17.28L 51.52-2.4L 59.92-7.68ZM 85.88000000000001-2.72L 88.44000000000001-2.72L 88.44000000000001 0L 80.72000000000001 0L 80.72000000000001-2.72L 82.64000000000001-2.72L 82.64000000000001-17.52L 74.68-12.52L 74.68-2.72L 76.64000000000001-2.72L 76.64000000000001 0L 68.92 0L 68.92-2.72L 71.44000000000001-2.72L 71.44000000000001-27.28L 68.92-27.28L 68.92-30L 74.68-30L 74.68-15.76L 81.32000000000001-19.92Q 82.08000000000001-20.4  83.12-20.4Q 84.16000000000001-20.4  85.02000000000001-19.58Q 85.88000000000001-18.76  85.88000000000001-17.24L 85.88000000000001-17.24L 85.88000000000001-2.72ZM 94.60000000000001-27.28L 97.72-27.28L 97.72-20L 100.96000000000001-20L 100.96000000000001-17.12L 97.72-17.12L 97.72-2.72L 101.52000000000001-2.72L 101.52000000000001 0L 98.16000000000001 0Q 96.36000000000001 0  95.48-0.94Q 94.60000000000001-1.88  94.60000000000001-4.16L 94.60000000000001-4.16L 94.60000000000001-17.12L 91.64-17.12L 91.64-20L 94.60000000000001-20L 94.60000000000001-27.28ZM 116.12000000000002-20L 121.32000000000002-20L 121.32000000000002 5.32Q 121.32000000000002 7  120.50000000000001 7.88Q 119.68 8.76  117.64000000000001 8.76L 117.64000000000001 8.76L 108.4 8.76L 108.4 3.32L 111.12000000000002 3.32L 111.12000000000002 6L 118.04000000000002 6L 118.04000000000002-4.52L 111.00000000000001-0.16Q 110.08000000000001 0.4  109.16000000000001 0.4L 109.16000000000001 0.4Q 108.24000000000001 0.4  107.56000000000002-0.22Q 106.88000000000001-0.84  106.88000000000001-2.2L 106.88000000000001-2.2L 106.88000000000001-17.28L 104.32000000000001-17.28L 104.32000000000001-20L 110.12000000000002-20L 110.12000000000002-2.76L 118.08000000000001-7.76L 118.08000000000001-17.28L 116.12000000000002-17.28L 116.12000000000002-20ZM 128.44000000000003-27.28L 125.92000000000003-27.28L 125.92000000000003-30L 132.08000000000004-30L 140.56000000000003-12.52L 148.96000000000004-30L 155.12000000000003-30L 155.12000000000003-27.28L 152.60000000000002-27.28L 152.60000000000002-2.72L 155.12000000000003-2.72L 155.12000000000003 0L 146.72000000000003 0L 146.72000000000003-2.72L 149.32000000000005-2.72L 149.32000000000005-23.32L 141.76000000000005-7.76L 139.24000000000004-7.76L 131.72000000000003-23.44L 131.72000000000003-2.72L 134.32000000000005-2.72L 134.32000000000005 0L 125.92000000000003 0L 125.92000000000003-2.72L 128.44000000000003-2.72L 128.44000000000003-27.28ZM 170.44 0L 163.04 0Q 161 0  160.16-0.94Q 159.32-1.88  159.32-3.56L 159.32-3.56L 159.32-16.44Q 159.32-18.04  160.06-19.02Q 160.8-20  163.04-20L 163.04-20L 170.44-20Q 172.64-20  173.4-19.02Q 174.16-18.04  174.16-16.44L 174.16-16.44L 174.16-3.56Q 174.16-1.88  173.32-0.94Q 172.48 0  170.44 0L 170.44 0ZM 162.56-17.28L 162.56-2.72L 170.92-2.72L 170.92-17.28L 162.56-17.28ZM 176.56-17.28L 176.56-20L 182.92-20L 182.92-17.28L 181.16-17.28L 184.39999999999998-2.76L 188.12-20L 192.51999999999998-20L 196.35999999999999-2.68L 199.64-17.28L 197.83999999999997-17.28L 197.83999999999997-20L 204.23999999999998-20L 204.23999999999998-17.28L 202.32-17.28L 198.51999999999998 0L 194.23999999999998 0L 190.44-17.32L 186.56 0L 182.07999999999998 0Q 182.07999999999998 0  181.79999999999998-1.28L 181.79999999999998-1.28Q 181.51999999999998-2.6  181.1-4.52Q 180.67999999999998-6.44  180.2-8.68Q 179.72-10.92  179.29999999999998-12.84Q 178.88-14.76  178.56-16L 178.56-16L 178.28-17.28L 176.56-17.28ZM 212.84000000000006-20L 212.84000000000006-2.72L 215.44000000000005-2.72L 215.44000000000005 0L 207.04000000000005 0L 207.04000000000005-2.72L 209.56000000000006-2.72L 209.56000000000006-17.28L 207.04000000000005-17.28L 207.04000000000005-20L 212.84000000000006-20ZM 211.20000000000005-27.36Q 212.04000000000005-27.36  212.62000000000006-26.74Q 213.20000000000005-26.12  213.20000000000005-25.26Q 213.20000000000005-24.4  212.62000000000006-23.82Q 212.04000000000005-23.24  211.18000000000004-23.24Q 210.32000000000005-23.24  209.74000000000004-23.82Q 209.16000000000005-24.4  209.16000000000005-25.26Q 209.16000000000005-26.12  209.76000000000005-26.74Q 210.36000000000004-27.36  211.20000000000005-27.36ZM 232.48000000000002-20.4L 232.48000000000002-20.4Q 235.60000000000002-20.4  235.60000000000002-17.32L 235.60000000000002-17.32L 235.60000000000002-2.72L 238.16000000000003-2.72L 238.16000000000003 0L 230.44000000000003 0L 230.44000000000003-2.72L 232.36-2.72L 232.36-17.6L 224.40000000000003-12.6L 224.40000000000003-2.72L 226.36-2.72L 226.36 0L 218.64000000000001 0L 218.64000000000001-2.72L 221.16000000000003-2.72L 221.16000000000003-17.32L 218.64000000000001-17.32L 218.64000000000001-20L 224.40000000000003-20L 224.40000000000003-15.84L 231.04000000000002-20Q 231.68-20.4  232.48000000000002-20.4ZM 259.08000000000004-17.28L 256.56000000000006-17.28L 256.56000000000006 5.32Q 256.56000000000006 7  255.74000000000004 7.88Q 254.92000000000004 8.76  252.88000000000005 8.76L 252.88000000000005 8.76L 243.20000000000005 8.76L 243.20000000000005 3.32L 245.92000000000004 3.32L 245.92000000000004 6L 253.28000000000006 6L 253.28000000000006-4.44L 246.44000000000005-0.12Q 245.56000000000006 0.4  244.50000000000006 0.4Q 243.44000000000005 0.4  242.60000000000005-0.42Q 241.76000000000005-1.24  241.76000000000005-2.44L 241.76000000000005-2.44L 241.76000000000005-16.48Q 241.76000000000005-18.44  242.28000000000006-19.04L 242.28000000000006-19.04Q 243.16000000000005-20  245.16000000000005-20L 245.16000000000005-20L 259.08000000000004-20L 259.08000000000004-17.28ZM 253.28000000000006-7.68L 253.28000000000006-17.28L 244.88000000000005-17.28L 244.88000000000005-2.4L 253.28000000000006-7.68ZM 265.14-3.96Q 265.96-3.96  266.54-3.32Q 267.12-2.68  267.12-1.84Q 267.12-1  266.54-0.42Q 265.96 0.16  265.12 0.16Q 264.28000000000003 0.16  263.68-0.42Q 263.08-1  263.08-1.84Q 263.08-2.68  263.7-3.32Q 264.32-3.96  265.14-3.96ZM 285.79999999999995-2.72L 285.79999999999995-7.4L 288.52-7.4L 288.52 0L 276.24 0Q 272.88 0  272.15999999999997-2.64L 272.15999999999997-2.64Q 271.91999999999996-3.4  271.91999999999996-4.28L 271.91999999999996-4.28L 271.91999999999996-25.68Q 271.91999999999996-28.6  273.96-29.6L 273.96-29.6Q 274.71999999999997-30  275.84-30L 275.84-30L 288.52-30L 288.52-22.6L 285.79999999999995-22.6L 285.79999999999995-27.28L 275.2-27.28L 275.2-2.72L 285.79999999999995-2.72ZM 295.32-30L 303.12-30Q 305.56-30  306.66-28.66Q 307.76-27.32  307.76-24.68L 307.76-24.68L 307.76-5.44Q 307.76-2.56  306.8-1.28Q 305.84000000000003 0  303.32 0L 303.32 0L 295.64000000000004 0Q 291.8 0  291.12-2.88L 291.12-2.88Q 290.88-3.76  290.88-4.84L 290.88-4.84L 290.88-24.68Q 290.88-27.36  291.76-28.56L 291.76-28.56Q 292.76-30  295.32-30L 295.32-30ZM 294.08000000000004-27.28L 294.08000000000004-2.72L 304.56-2.72L 304.56-27.28L 294.08000000000004-27.28ZM 315.28000000000003-27.28L 312.76000000000005-27.28L 312.76000000000005-30L 318.92-30L 327.40000000000003-12.52L 335.8-30L 341.96000000000004-30L 341.96000000000004-27.28L 339.44000000000005-27.28L 339.44000000000005-2.72L 341.96000000000004-2.72L 341.96000000000004 0L 333.56 0L 333.56-2.72L 336.16-2.72L 336.16-23.32L 328.6-7.76L 326.08000000000004-7.76L 318.56-23.44L 318.56-2.72L 321.16-2.72L 321.16 0L 312.76000000000005 0L 312.76000000000005-2.72L 315.28000000000003-2.72L 315.28000000000003-27.28Z" data-box="15.00 183.09 270.00 30.84 " transform="matrix(0.7956167411022607 0 0 0.7956167411022608 12.93015332197615 206.95462379795492)" />
</svg>